<mxfile host="app.diagrams.net" modified="2023-11-22T17:52:11.182Z" agent="Mozilla/5.0 (Windows NT 10.0; Win64; x64) AppleWebKit/537.36 (KHTML, like Gecko) Chrome/118.0.0.0 Whale/3.23.214.10 Safari/537.36" version="22.1.3" etag="xv2nok6qNw9WFm-jEe9l" type="github">
  <diagram name="페이지-1" id="ZL9Jlj6670kdyOfbKFxj">
    <mxGraphModel>
      <root>
        <mxCell id="0" />
        <mxCell id="1" parent="0" />
      </root>
    </mxGraphModel>
  </diagram>
</mxfile>
